<?xml version="1.0" standalone="no"?>
<!DOCTYPE svg PUBLIC "-//W3C//DTD SVG 20010904//EN"
 "http://www.w3.org/TR/2001/REC-SVG-20010904/DTD/svg10.dtd">
<svg version="1.0" xmlns="http://www.w3.org/2000/svg"
 width="524.000000pt" height="524.000000pt" viewBox="0 0 524.000000 524.000000"
 preserveAspectRatio="xMidYMid meet">
<metadata>
Created by potrace 1.11, written by Peter Selinger 2001-2013
</metadata>
<g transform="translate(0.000000,524.000000) scale(0.100000,-0.100000)"
fill="#000000" stroke="none">
<path d="M2572 5115 c-100 -18 -184 -34 -186 -36 -7 -7 -2386 -4976 -2386
-4983 0 -3 269 -5 597 -4 l597 3 715 1543 c394 848 718 1542 721 1542 3 0 323
-694 711 -1543 l706 -1542 597 -3 c566 -2 597 -1 592 15 -3 10 -547 1148
-1209 2528 l-1204 2510 -34 2 c-19 0 -116 -14 -217 -32z"/>
</g>
</svg>
